<?xml version="1.0" encoding="utf-8"?>
<!-- Generator: Adobe Illustrator 27.5.0, SVG Export Plug-In . SVG Version: 6.00 Build 0)  -->
<svg version="1.1" xmlns="http://www.w3.org/2000/svg" xmlns:xlink="http://www.w3.org/1999/xlink" x="0px" y="0px"
	 viewBox="0 0 750 500" style="enable-background:new 0 0 750 500;" xml:space="preserve">
<g id="BACKGROUND">
	<rect style="fill:#13212B;" width="750" height="500"/>
</g>
<g id="OBJECTS">
	<g>
		<defs>
			<rect id="SVGID_1_" width="750" height="500"/>
		</defs>
		<clipPath id="SVGID_00000040568388213433810020000016366686990867345595_">
			<use xlink:href="#SVGID_1_"  style="overflow:visible;"/>
		</clipPath>
		<g style="clip-path:url(#SVGID_00000040568388213433810020000016366686990867345595_);">
			<g>
				<rect x="305.96" y="87.53" style="fill:#FCF6E1;" width="216.587" height="294.552"/>
			</g>
			<g>
				<path style="fill:#E07123;" d="M765.111,103.37c64.479,21.741-72.985,123.207-163.016,123.207S439.08,171.415,439.08,103.37
					S512.064-19.837,602.095-19.837S654.073,65.93,765.111,103.37z"/>
			</g>
			<g>
				<path style="fill:#4070B5;" d="M8.663,121.966c0-94.227,36.704-130.579,70.785-130.808c34.08-0.229,15.626,51.196,15.626,51.196
					s179.475-171.775,175.515-11.548c0,0,195.535-115.244,122.116,71.192S8.663,365.814,8.663,121.966z"/>
			</g>
			<g>
				<ellipse style="fill:#E8A02F;" cx="223.159" cy="352.141" rx="196.055" ry="103.507"/>
			</g>
			<g>
				<path style="fill:#AD2E1D;" d="M49.366,189.149c0-67.681-56.002-110.704-56.002-47.191s-43.16,365.091,117.725,365.091
					s229.443,0,304.368,0s45.926-74.907-102.68-86.642C164.171,408.674,49.366,416.436,49.366,189.149z"/>
			</g>
		</g>
	</g>
	<g>
		<g>
			<g>
				<path style="fill:#13212B;" d="M338.705,312.294c73.535-27.926,62.046-269.045-31.062-269.045S183.098,50.78,183.098,88.352
					c0,0-26.67-25.223-39.481-17.127c-12.81,8.095-12.481,18.007-12.481,18.007s-27.618-26.743-35.371-7.453
					c0,0-45.078,5.608-52.085,26.593C36.63,129.487-42.646,457.116,338.705,312.294z"/>
			</g>
			<g>
				<path style="fill:#E07123;" d="M134.943,145.59c0,0,26.051-90.523-22.815-84.116C63.262,67.882,134.943,145.59,134.943,145.59z"
					/>
			</g>
			<g>
				<path style="fill:#E8A02F;" d="M134.72,145.59c0,0-19.314-90.523,16.914-84.116C187.863,67.882,134.72,145.59,134.72,145.59z"/>
			</g>
			<g>
				<g>
					<path style="fill:#FCF6E1;" d="M258.401,159.668c-0.324,0-0.652-0.09-0.945-0.278c-17.907-11.516-27.612-25.066-28.843-40.273
						c-0.868-10.725,2.641-22.38,10.148-33.706c5.628-8.491,11.439-13.763,11.684-13.983c0.718-0.647,1.825-0.589,2.471,0.13
						c0.647,0.718,0.589,1.824-0.129,2.471l0,0c-0.057,0.052-5.777,5.25-11.162,13.397c-4.907,7.424-10.542,18.902-9.522,31.427
						c1.145,14.056,10.312,26.704,27.246,37.594c0.813,0.523,1.048,1.605,0.525,2.419
						C259.54,159.385,258.977,159.668,258.401,159.668z"/>
				</g>
				<g>
					<path style="fill:#FCF6E1;" d="M243.376,83.7c-0.4,0-0.803-0.136-1.132-0.416l-10.862-9.222
						c-0.737-0.625-0.827-1.73-0.202-2.466c0.626-0.737,1.73-0.828,2.467-0.201l10.862,9.222c0.737,0.626,0.827,1.73,0.202,2.467
						C244.365,83.49,243.872,83.7,243.376,83.7z"/>
				</g>
				<g>
					<path style="fill:#FCF6E1;" d="M232.513,103.749c-0.35,0-0.703-0.105-1.011-0.323l-11.254-7.979
						c-0.788-0.559-0.974-1.651-0.415-2.44c0.559-0.789,1.651-0.975,2.44-0.415l11.253,7.979c0.788,0.559,0.974,1.651,0.415,2.44
						C233.601,103.492,233.061,103.749,232.513,103.749z"/>
				</g>
				<g>
					<path style="fill:#FCF6E1;" d="M230.545,122.496h-17.724c-0.967,0-1.75-0.783-1.75-1.75c0-0.966,0.783-1.75,1.75-1.75h17.724
						c0.967,0,1.75,0.784,1.75,1.75C232.295,121.713,231.512,122.496,230.545,122.496z"/>
				</g>
				<g>
					<path style="fill:#FCF6E1;" d="M226.892,150.279c-0.481,0-0.959-0.197-1.305-0.583c-0.644-0.721-0.583-1.827,0.137-2.471
						l10.793-9.657c0.72-0.645,1.827-0.583,2.471,0.137c0.644,0.72,0.583,1.827-0.137,2.471l-10.793,9.657
						C227.724,150.132,227.307,150.279,226.892,150.279z"/>
				</g>
				<g>
					<path style="fill:#FCF6E1;" d="M243.377,164.346c-0.216,0-0.435-0.04-0.648-0.125c-0.898-0.358-1.335-1.376-0.977-2.274
						l4.864-12.195c0.358-0.898,1.377-1.334,2.274-0.977c0.898,0.358,1.335,1.376,0.977,2.274l-4.864,12.195
						C244.729,163.929,244.072,164.346,243.377,164.346z"/>
				</g>
			</g>
		</g>
		<g>
			<path style="fill:#4070B5;" d="M340.857,488.888l-160.528-22.647c-19.263,0-13.534-36.027-13.534-51.585V228.421
				c0-15.558,15.616-28.17,34.878-28.17h152.689c19.263,0,34.878,12.612,34.878,28.17l-13.505,232.297
				C375.735,476.276,360.119,488.888,340.857,488.888z"/>
		</g>
		<g>
			<path style="fill:#66A6DC;" d="M318.748,438.433l-104.406-14.729c-12.528,0-8.803-23.431-8.803-33.55V269.027
				c0-10.119,10.156-18.322,22.685-18.322h99.308c12.528,0,22.685,8.203,22.685,18.322l-8.784,151.084
				C341.433,430.23,331.277,438.433,318.748,438.433z"/>
		</g>
		<g>
			<g>
				<path style="fill:#66A6DC;" d="M487.171,17.072c0,0-201.893,0-255.447,0s2.613,39.81,39.559,39.81s215.888,0,215.888,0V17.072z"
					/>
			</g>
			<g>
				<path style="fill:#66A6DC;" d="M487.171,17.072c0,0,92.52-2.646,92.52,92.52s0,220.932,0,220.932H456.799L487.171,17.072z"/>
			</g>
			<g>
				<path style="fill:#66A6DC;" d="M487.171,17.072c-178.303,0-170.105,23.961-170.105,104.457s30.344,30.565,38.542-12.473
					c8.198-43.039,131.563-34.707,131.563-34.707V17.072z"/>
			</g>
			<g>
				<path style="fill:#AD2E1D;" d="M317.066,121.528c0,0,13.789-2.726,13.789,19.606c0,22.331,12.297,62.633,0,62.633
					C318.558,203.767,317.122,142.278,317.066,121.528z"/>
			</g>
			<g>
				<path style="fill:#66A6DC;" d="M531.91,61.81c-178.303,0-170.105,23.961-170.105,104.457s30.344,30.565,38.542-12.473
					c8.198-43.039,131.563-34.707,131.563-34.707V61.81z"/>
			</g>
			<g>
				<path style="fill:#AD2E1D;" d="M361.805,166.267c0,0,13.789-2.726,13.789,19.606c0,22.331,12.297,62.633,0,62.633
					C363.297,248.506,361.861,187.017,361.805,166.267z"/>
			</g>
			<g>
				<path style="fill:#66A6DC;" d="M579.691,109.592c-178.303,0-170.105,23.961-170.105,104.457
					c0,80.496,30.344,30.566,38.542-12.473c8.198-43.038,131.563-34.707,131.563-34.707V109.592z"/>
			</g>
			<g>
				<path style="fill:#AD2E1D;" d="M409.586,214.048c0,0,13.789-2.726,13.789,19.606s12.297,62.633,0,62.633
					C411.078,296.287,409.642,234.798,409.586,214.048z"/>
			</g>
			<g>
				<path style="fill:#AD2E1D;" d="M248.068,17.072c0,0-59.626,0-89.945,0s7.915,19.905,32.34,19.905S248.068,36.804,248.068,17.072
					z"/>
			</g>
			<g>
				<path style="fill:#13212B;" d="M319.533,65.93c0.865-6.165,3.874-11.919,7.5-16.922c0,0,0.552-0.762,0.552-0.762l0.592-0.73
					c0.709-0.907,1.676-2.04,2.445-2.861c0.699-0.801,1.854-1.937,2.633-2.694c0.372-0.374,0.966-0.934,1.382-1.279
					c21.811-19.427,56.397-23.853,84.576-21.905c-13.488,1.046-26.854,2.337-40.005,5.284c-0.862,0.187-2.281,0.503-3.117,0.687
					c-0.193,0.053-3.678,0.963-3.964,1.037c-1.989,0.482-4.983,1.464-6.978,2.05c-1.214,0.441-3.97,1.371-5.132,1.817
					c-1.226,0.498-2.988,1.187-4.204,1.689c-7.143,3.081-14.098,7.038-20.104,11.987c-0.503,0.432-1.545,1.348-2.042,1.778
					c-0.905,0.796-1.74,1.663-2.614,2.494c-0.255,0.282-1.57,1.667-1.856,1.979c-0.935,1.079-2.014,2.354-2.87,3.502
					C323.428,56.958,320.909,61.254,319.533,65.93L319.533,65.93z"/>
			</g>
			<g>
				<path style="fill:#13212B;" d="M361.805,151.498c-5.713-29.125-0.378-72.729,34.227-80c2.785-0.581,5.637-0.861,8.477-0.918
					c1.621-0.026,3.465,0.04,5.077,0.163c-4.484,0.412-8.915,1.093-13.128,2.421c-4.158,1.272-8.194,3.161-11.753,5.666
					C363.437,93.636,361.044,127.668,361.805,151.498L361.805,151.498z"/>
			</g>
			<g>
				<path style="fill:#13212B;" d="M409.586,203.767c-3.647-19.968-1.751-42.43,8.206-60.408c9.216-16.45,24.57-26.271,42.99-29.401
					c8.687-1.476,17.672-1.563,26.389-0.558c-8.746,0.119-17.436,0.835-25.93,2.813c-1.157,0.261-2.505,0.647-3.658,0.935
					c-2.889,0.846-5.843,1.855-8.61,3.018c-11.948,5.015-21.764,13.631-28.182,24.903
					C410.955,162.243,408.397,184.238,409.586,203.767L409.586,203.767z"/>
			</g>
			<g>
				<path style="fill:#13212B;" d="M471.554,178.245c28.337,8.908,55.223,2.968,76.428-17.981c2.891-2.771,5.588-5.754,8.235-8.767
					c-2.06,3.487-4.377,6.818-6.972,9.935c-13.162,16.202-33.408,25.481-54.365,23.502
					C486.775,184.189,478.713,182.151,471.554,178.245L471.554,178.245z"/>
			</g>
		</g>
		<g>
			<path style="fill:#13212B;" d="M706.282,158.972c-42.365-22.159-69.656,17.354-109.128,0
				c-39.471-17.354-90.914,3.567-95.217,55.103c-3.542,42.433-30.611-4.795-67.531,43.114
				c-27.339,35.475-6.615,102.405-36.998,91.329c-51.918-18.926-100.143,99.577,11.066,136.747
				c111.209,37.17,154.051-84.182,221.282-39.338c67.232,44.844,114.073-26.756,80.643-70.817
				c-33.429-44.061,30.382-19.478,30.382-66.134S747.255,180.403,706.282,158.972z"/>
		</g>
	</g>
	<g>
		<defs>
			<rect id="SVGID_00000009569544910355311510000018201663306533703848_" width="750" height="500"/>
		</defs>
		<clipPath id="SVGID_00000047771871952779617880000015042494153701468300_">
			<use xlink:href="#SVGID_00000009569544910355311510000018201663306533703848_"  style="overflow:visible;"/>
		</clipPath>
		<g style="clip-path:url(#SVGID_00000047771871952779617880000015042494153701468300_);">
			<g>
				<g>
					<path style="fill:#E07123;" d="M679.047,378.492c0,0,75.878-13.492,75.878-81.94s-41.751-129.469-116.689-83.435
						C563.298,259.15,574.265,400.415,679.047,378.492z"/>
				</g>
				<g>
					<path style="fill:#E8A02F;" d="M681.258,199.011c0-110.365-334.353,168.734-200.243,179.481c0,0-42.37,152.556,93.018,152.556
						S681.258,248.584,681.258,199.011z"/>
				</g>
				<g>
					<g>
						<circle style="fill:#FCF6E1;" cx="490.851" cy="282.804" r="13.483"/>
					</g>
					<g>
						
							<ellipse transform="matrix(0.1595 -0.9872 0.9872 0.1595 193.7439 724.8309)" style="fill:#FCF6E1;" cx="522.547" cy="248.634" rx="13.483" ry="13.483"/>
					</g>
					<g>
						
							<ellipse transform="matrix(0.9252 -0.3796 0.3796 0.9252 -40.1116 231.0486)" style="fill:#FCF6E1;" cx="565.902" cy="217.25" rx="13.483" ry="13.483"/>
					</g>
				</g>
				<g>
					<path style="fill:#FCF6E1;" d="M740.078,460.637c0,19.026-134.647,19.026-134.647,0s30.142-34.45,67.324-34.45
						C709.936,426.187,740.078,441.611,740.078,460.637z"/>
				</g>
				<g>
					<ellipse style="fill:#AD2E1D;" cx="672.439" cy="458.011" rx="38.707" ry="12.084"/>
				</g>
				<g>
					<path style="fill:#AD2E1D;" d="M684.292,306.64c-20.221,27.819-40.575,64.222-38.023,77.499
						c2.892,15.044,15.449,2.863,15.449,2.863s-0.479,23.274,14.71,24.414c15.188,1.14,19.021-19.014,19.021-19.014
						s9.767,10.989,14.872-3.455C714.827,376.199,700.134,337.166,684.292,306.64z"/>
				</g>
				<g>
					<path style="fill:#E07123;" d="M683.689,334.288c0,0-16.014,58.078-6.486,58.114S701.611,383.5,683.689,334.288z"/>
				</g>
				<g>
					<circle style="fill:#FCF6E1;" cx="605.41" cy="311.614" r="48.663"/>
				</g>
				<g>
					<circle style="fill:#4070B5;" cx="579.421" cy="311.614" r="22.674"/>
				</g>
				<g>
					
						<ellipse transform="matrix(0.1748 -0.9846 0.9846 0.1748 359.5982 950.678)" style="fill:#FCF6E1;" cx="746.949" cy="260.812" rx="51.477" ry="51.477"/>
				</g>
				<g>
					
						<ellipse transform="matrix(0.1733 -0.9849 0.9849 0.1733 360.6543 951.27)" style="fill:#13212B;" cx="746.949" cy="260.812" rx="17.088" ry="17.088"/>
				</g>
				<g>
					<path style="fill:#AD2E1D;" d="M695.472,260.812l26.727-11.725c25.533-11.201,55.24-6.632,76.227,11.725l0,0
						c0,0,2.731-51.477-51.477-51.477C692.741,209.335,695.472,260.812,695.472,260.812z"/>
				</g>
				<g>
					<g>
						<path style="fill:#FCF6E1;" d="M467.231,407.111c0,0-13.408,34.238,8.206,52.462c21.614,18.224,73.547-20.519,73.547-20.519
							L467.231,407.111z"/>
					</g>
					<g>
						<path style="fill:#66A6DC;" d="M453.637,419.241c-9.18-4.68,2.303-47.055,48.206-14.859
							c45.903,32.195,47.141,34.672,47.141,34.672S485.213,435.339,453.637,419.241z"/>
					</g>
					<g>
						<path style="fill:#4070B5;" d="M548.985,439.054c0,0-42.921,35.852-79.16,35.852
							C433.586,474.906,468.755,427.87,548.985,439.054z"/>
					</g>
				</g>
				<g>
					<path style="fill:#E07123;" d="M509.491,370.095c-30.261-7.355-32.316,3.604-15.877,7.029
						C510.052,380.549,509.491,370.095,509.491,370.095z"/>
				</g>
			</g>
		</g>
	</g>
	<g>
		<g>
			<g>
				<path style="fill:#FCF6E1;" d="M722.59,136.596c0,0-61.177,30.693-121.447,13.928c-60.27-16.766-96.809-74.642-96.809-74.642
					s61.177-30.693,121.447-13.928S722.59,136.596,722.59,136.596z"/>
			</g>
			<g>
				<path style="fill:#66A6DC;" d="M686.881,126.662c0,0-45.19,35.141-85.738,23.861s-61.1-64.709-61.1-64.709
					s45.19-35.141,85.738-23.861S686.881,126.662,686.881,126.662z"/>
			</g>
			<g>
				
					<ellipse transform="matrix(0.4996 -0.8663 0.8663 0.4996 214.5139 582.86)" style="fill:#E8A02F;" cx="611.743" cy="105.76" rx="45.83" ry="45.83"/>
			</g>
			<g>
				<path style="fill:#13212B;" d="M625.219,109.509c-2.07,7.442-9.782,11.797-17.224,9.727c-7.442-2.07-11.797-9.782-9.727-17.224
					c2.07-7.442,9.782-11.797,17.224-9.727C622.934,94.355,627.289,102.067,625.219,109.509z"/>
			</g>
			<g>
				<circle style="fill:#FCF6E1;" cx="629.757" cy="88.851" r="16.295"/>
			</g>
			<g>
				<path style="fill:#13212B;" d="M504.334,75.881c19.752-10.023,41.391-16.348,63.342-19.191
					c19.513-2.469,39.546-1.648,58.574,3.578c18.365,5.164,35.401,14.362,50.466,25.968c17.99,14.015,33.785,31.017,45.874,50.36
					c-1.497-2.124-3.064-4.194-4.672-6.23c-13.623-17.21-29.592-32.685-47.654-45.188c-2.052-1.39-4.331-2.934-6.457-4.234
					c-2.17-1.391-5.211-3.138-7.465-4.424c-3.668-1.964-7.389-3.924-11.188-5.612c-0.887-0.387-2.636-1.17-3.52-1.557
					c-1.154-0.472-4.151-1.652-5.36-2.137c-2.073-0.715-5.197-1.878-7.282-2.463l-3.679-1.11c-1.229-0.313-4.396-1.123-5.585-1.426
					c-1.212-0.256-4.398-0.915-5.646-1.176c-1.285-0.202-4.436-0.752-5.693-0.94c-0.945-0.115-2.872-0.367-3.819-0.484
					c-3.806-0.472-7.683-0.728-11.516-0.922c-1.41-0.092-4.366-0.108-5.782-0.149c-1.809-0.021-3.976,0.047-5.788,0.056
					c-5.04,0.171-10.398,0.552-15.414,1.082C544.888,62.161,523.98,67.558,504.334,75.881L504.334,75.881z"/>
			</g>
		</g>
		<g>
			<g>
				<path style="fill:#FCF6E1;" d="M342.463,329.279c0,0-50.713,45.966-113.271,45.966c-62.558,0-113.271-45.966-113.271-45.966
					s50.713-45.966,113.271-45.966C291.75,283.313,342.463,329.279,342.463,329.279z"/>
			</g>
			<g>
				<path style="fill:#E8A02F;" d="M310.202,306.814c-2.76,19.294-19.352,34.121-39.408,34.121
					c-21.992,0-39.819-17.827-39.819-39.819c0-6.343,1.485-12.343,4.125-17.667C264.492,284.793,290.923,295.884,310.202,306.814z"
					/>
			</g>
			<g>
				<path style="fill:#E07123;" d="M148.181,351.745c2.76-19.294,19.352-34.121,39.408-34.121c21.992,0,39.819,17.827,39.819,39.819
					c0,6.343-1.485,12.343-4.125,17.667C193.892,373.766,167.461,362.675,148.181,351.745z"/>
			</g>
			<g>
				<path style="fill:#E07123;" d="M237.667,198.693c0-10.823-3.795-19.596-8.475-19.596c-4.681,0-8.475,8.773-8.475,19.596
					c0,10.822,3.795,60.954,8.475,60.954C233.872,259.647,237.667,209.516,237.667,198.693z"/>
			</g>
			<g>
				<path style="fill:#E07123;" d="M156.89,211.784c-5.451-9.349-13.148-15.017-17.192-12.659
					c-4.044,2.358-2.903,11.848,2.549,21.198c5.451,9.349,33.981,50.746,38.024,48.388
					C184.314,266.353,162.341,221.133,156.89,211.784z"/>
			</g>
			<g>
				<path style="fill:#E07123;" d="M93.231,263.691c-10.185-3.659-19.725-3.053-21.307,1.352
					c-1.582,4.405,5.392,10.942,15.577,14.601c10.185,3.659,58.648,17.035,60.231,12.629S103.417,267.35,93.231,263.691z"/>
			</g>
			<g>
				<path style="fill:#E07123;" d="M301.493,211.784c5.451-9.349,13.148-15.017,17.192-12.659
					c4.044,2.358,2.903,11.848-2.549,21.198c-5.451,9.349-33.981,50.746-38.024,48.388
					C274.069,266.353,296.042,221.133,301.493,211.784z"/>
			</g>
			<g>
				<path style="fill:#E07123;" d="M365.152,263.691c10.185-3.659,19.725-3.053,21.307,1.352s-5.392,10.942-15.577,14.601
					c-10.185,3.659-58.648,17.035-60.231,12.629S354.966,267.35,365.152,263.691z"/>
			</g>
			<g>
				<path style="fill:#FCF6E1;" d="M220.716,464.855c0,10.823,3.795,19.596,8.475,19.596c4.681,0,8.475-8.773,8.475-19.596
					c0-10.822-3.795-60.954-8.475-60.954C224.511,403.901,220.716,454.033,220.716,464.855z"/>
			</g>
			<g>
				<path style="fill:#FCF6E1;" d="M301.493,451.764c5.451,9.349,13.148,15.017,17.192,12.659
					c4.044-2.358,2.903-11.848-2.549-21.198c-5.451-9.349-33.981-50.746-38.024-48.388
					C274.069,397.196,296.042,442.415,301.493,451.764z"/>
			</g>
			<g>
				<path style="fill:#FCF6E1;" d="M365.152,399.857c10.185,3.659,19.725,3.053,21.307-1.352
					c1.582-4.405-5.392-10.942-15.577-14.601c-10.185-3.659-58.648-17.035-60.231-12.629S354.966,396.198,365.152,399.857z"/>
			</g>
			<g>
				<path style="fill:#FCF6E1;" d="M156.89,451.764c-5.451,9.349-13.148,15.017-17.192,12.659
					c-4.044-2.358-2.903-11.848,2.549-21.198c5.451-9.349,33.981-50.746,38.024-48.388
					C184.314,397.196,162.341,442.415,156.89,451.764z"/>
			</g>
			<g>
				<path style="fill:#FCF6E1;" d="M93.231,399.857c-10.185,3.659-19.725,3.053-21.307-1.352
					c-1.582-4.405,5.392-10.942,15.577-14.601c10.185-3.659,58.648-17.035,60.231-12.629S103.417,396.198,93.231,399.857z"/>
			</g>
			<g>
				<circle style="fill:#13212B;" cx="227.408" cy="329.279" r="13.987"/>
			</g>
			<g>
				<path style="fill:#13212B;" d="M115.92,329.279c16.343-14.95,35.496-26.843,55.882-35.465
					c18.137-7.609,37.658-12.186,57.39-12.251c19.077,0.053,37.955,4.349,55.579,11.492c21.088,8.682,40.862,20.828,57.692,36.223
					c-2.012-1.645-4.076-3.219-6.171-4.75c-17.737-12.93-37.27-23.558-58.022-30.763c-2.35-0.79-4.958-1.666-7.355-2.349
					c-2.464-0.759-5.861-1.626-8.378-2.262c-4.06-0.91-8.17-1.8-12.282-2.409c-0.958-0.135-2.853-0.421-3.808-0.557
					c-1.238-0.146-4.442-0.479-5.737-0.622c-2.189-0.133-5.51-0.417-7.676-0.422l-3.842-0.083c-1.268,0.028-4.536,0.096-5.763,0.123
					c-1.236,0.078-4.482,0.297-5.755,0.381c-1.292,0.149-4.475,0.464-5.737,0.621c-0.941,0.142-2.865,0.416-3.809,0.557
					c-3.793,0.566-7.597,1.357-11.342,2.198c-1.383,0.289-4.235,1.066-5.611,1.406c-1.748,0.464-3.818,1.111-5.561,1.605
					c-4.81,1.515-9.869,3.318-14.56,5.173C151.314,305.193,132.617,315.996,115.92,329.279L115.92,329.279z"/>
			</g>
			<g>
				<path style="fill:#13212B;" d="M227.408,376.86c-26.236,0-47.58-21.344-47.58-47.58s21.344-47.58,47.58-47.58
					c26.236,0,47.58,21.344,47.58,47.58S253.644,376.86,227.408,376.86z M227.408,285.199c-24.306,0-44.08,19.774-44.08,44.08
					s19.774,44.08,44.08,44.08c24.306,0,44.08-19.774,44.08-44.08S251.714,285.199,227.408,285.199z"/>
			</g>
		</g>
		<g>
			<g>
				<circle style="fill:#AD2E1D;" cx="565.903" cy="22.207" r="18.093"/>
			</g>
			<g>
				<circle style="fill:#AD2E1D;" cx="639.492" cy="29.396" r="18.093"/>
			</g>
			<g>
				<circle style="fill:#AD2E1D;" cx="701.781" cy="66.05" r="18.093"/>
			</g>
		</g>
		<g>
			<g>
				<g>
					<path style="fill:#E07123;" d="M95.073,333.687c0,20.575-74.509,20.575-74.509,0c0-20.575,16.679-37.255,37.255-37.255
						C78.394,296.433,95.073,313.112,95.073,333.687z"/>
				</g>
				<g>
					<path style="fill:#E07123;" d="M125.705,445.927c0,20.575-16.679,37.255-37.255,37.255c-20.575,0-20.575-74.509,0-74.509
						C109.026,408.672,125.705,425.352,125.705,445.927z"/>
				</g>
			</g>
			<g>
				<g>
					<ellipse style="fill:#FCF6E1;" cx="51.196" cy="143.379" rx="43.877" ry="21.413"/>
				</g>
				<g>
					<ellipse style="fill:#FCF6E1;" cx="51.196" cy="204.208" rx="43.877" ry="21.413"/>
				</g>
			</g>
		</g>
	</g>
</g>
</svg>
