<svg width="1000" height="1000" viewBox="0 0 1000 1000" fill="none" xmlns="http://www.w3.org/2000/svg">
<g clip-path="url(#clip0_14_2)">
<rect width="1000" height="1000" fill="#FFE1DE"/>
<path d="M851.354 548.932H547.197V795.215H851.354V548.932Z" fill="#FFAFA4"/>
<path fill-rule="evenodd" clip-rule="evenodd" d="M635.043 661.891H587.418V765.33H635.043V661.891ZM821.865 666.798H774.24V765.33H821.865V666.798ZM759.595 639.2H711.964V765.33H759.595V639.2ZM697.319 603.881H649.689V765.33H697.319V603.881ZM808.466 650.572H787.023V662.288H808.466V650.572ZM621.036 646.019H599.593V657.729H621.036V646.019ZM746.501 624.091H725.058V635.807H746.501V624.091ZM683.455 587.961H662.017V599.677H683.455V587.961Z" fill="#FFF1E2"/>
<path fill-rule="evenodd" clip-rule="evenodd" d="M724.8 746.661L818.388 645.45C819.723 644.006 821.966 643.936 823.391 645.294C824.81 646.658 824.879 648.94 823.544 650.384L727.043 754.747C726.32 755.525 725.296 755.939 724.251 755.874C723.201 755.81 722.229 755.273 721.612 754.409L654.555 661.429L582.964 758.269C581.787 759.858 579.57 760.181 578.008 758.983C576.446 757.791 576.129 755.531 577.306 753.942L651.758 653.225C652.433 652.312 653.489 651.78 654.607 651.786C655.726 651.791 656.777 652.339 657.442 653.257L724.8 746.661Z" fill="#DC5D3C"/>
<path fill-rule="evenodd" clip-rule="evenodd" d="M678.935 318.488C678.565 317.447 678.363 316.326 678.363 315.158C678.363 309.683 682.804 305.239 688.279 305.239C693.75 305.239 698.195 309.683 698.195 315.158C698.195 320.632 693.75 325.076 688.279 325.076C686.948 325.076 685.681 324.814 684.518 324.338L585.27 440.409C585.906 441.717 586.264 443.186 586.264 444.737C586.264 450.211 581.819 454.656 576.348 454.656C570.873 454.656 566.432 450.211 566.432 444.737C566.432 444.466 566.44 444.198 566.464 443.932L557.011 437.371C555.329 438.676 553.221 439.454 550.933 439.454C549.822 439.454 548.756 439.272 547.763 438.936L447.501 571.092C447.807 572.05 447.972 573.068 447.972 574.126C447.972 579.598 443.531 584.044 438.056 584.044C432.581 584.044 428.14 579.598 428.14 574.126C428.14 573.591 428.18 573.068 428.261 572.561L366.46 510.608C365.08 511.336 363.507 511.751 361.838 511.751C360.84 511.751 359.875 511.602 358.966 511.324L251.343 678.901C252.221 680.381 252.726 682.107 252.726 683.954C252.726 689.426 248.282 693.872 242.809 693.872C237.336 693.872 232.892 689.426 232.892 683.954C232.892 678.478 237.336 674.032 242.809 674.032C243.484 674.032 244.143 674.101 244.78 674.229L352.831 505.985C352.248 504.722 351.922 503.314 351.922 501.833C351.922 496.357 356.367 491.911 361.838 491.911C367.313 491.911 371.758 496.357 371.758 501.833C371.758 502.658 371.653 503.462 371.464 504.231L432.798 565.717C434.323 564.76 436.125 564.208 438.056 564.208C439.46 564.208 440.795 564.498 442.006 565.025L541.821 433.456C541.302 432.254 541.013 430.928 541.013 429.535C541.013 424.061 545.458 419.617 550.933 419.617C556.403 419.617 560.848 424.061 560.848 429.535C560.848 429.767 560.84 429.996 560.824 430.224L570.354 436.837C572.019 435.571 574.095 434.818 576.348 434.818C577.313 434.818 578.247 434.957 579.128 435.214L678.935 318.488Z" fill="#FFAFA4"/>
<path d="M480.256 234.136H165.117V472.234H480.256V234.136Z" fill="#FFF1E2"/>
<path fill-rule="evenodd" clip-rule="evenodd" d="M228.348 274.373H206.905V449.043H228.348V274.373ZM270.894 258.782H249.452V448.951H270.894V258.782ZM313.441 298.691H291.999V448.85H313.441V298.691ZM355.989 273.917H334.545V448.741H355.989V273.917ZM398.538 322.491H377.095V448.621H398.538V322.491ZM441.08 357.746H419.638V448.491H441.08V357.746Z" fill="#FFAFA4" fill-opacity="0.64"/>
<path fill-rule="evenodd" clip-rule="evenodd" d="M525.55 720.834H482.708V663.842H453.386L504.129 590.245L554.872 663.842H525.55V720.834Z" fill="#E5734E"/>
<path fill-rule="evenodd" clip-rule="evenodd" d="M757.747 245.211H800.589V302.204H829.911L779.168 375.801L728.425 302.204H757.747V245.211Z" fill="#FFB000"/>
<path d="M651.089 582.503C690.524 582.503 722.492 549.979 722.492 509.86C722.492 469.74 690.524 437.216 651.089 437.216C611.654 437.216 579.685 469.74 579.685 509.86C579.685 549.979 611.654 582.503 651.089 582.503Z" fill="#FFCD80"/>
<path fill-rule="evenodd" clip-rule="evenodd" d="M634.418 460.302L631.792 461.255L630.492 457.547L635.074 455.884C636.16 455.491 637.326 456.003 637.685 457.027L639.883 463.3C643.954 462.015 648.016 461.229 652.063 460.94C657.235 460.569 662.388 461.008 667.518 462.256C668.098 462.394 668.569 462.777 668.815 463.295C669.057 463.814 669.05 464.42 668.789 464.956L663.006 476.853C662.569 477.748 661.541 478.237 660.569 478.009C655.529 476.832 650.367 476.874 645.081 478.13L652.405 499.032C672.658 495.963 684.755 501.243 688.997 514.174C691.331 521.188 690.613 527.96 686.869 534.458C683.501 540.548 677.964 545.692 670.21 549.84L673.987 560.618C674.345 561.64 673.76 562.786 672.674 563.179L668.176 564.811L666.878 561.107L669.42 560.184L665.726 549.64C665.396 548.701 665.859 547.645 666.806 547.176C674.522 543.341 680.022 538.546 683.264 532.689C686.439 527.178 687.03 521.462 685.059 515.532C681.242 503.898 669.861 500.041 651.248 503.216C650.265 503.381 649.331 502.858 649.02 501.97L640.45 477.515C640.271 477.004 640.326 476.434 640.595 475.939C640.866 475.448 641.332 475.073 641.885 474.913C648.077 473.073 654.123 472.702 660.013 473.794L663.997 465.601C660.072 464.854 656.135 464.616 652.182 464.903C647.863 465.21 643.537 466.136 639.188 467.674C638.111 468.056 636.955 467.542 636.598 466.523L634.418 460.302ZM664.955 534.843C667.515 532.994 669.194 531.09 669.899 529.07C670.326 527.776 670.499 526.432 670.419 525.04L674.545 524.656C674.644 526.54 674.402 528.361 673.816 530.146C672.659 533.455 669.734 536.66 664.874 539.606C664.338 539.93 663.688 540.014 663.103 539.829C662.523 539.642 662.07 539.208 661.874 538.649L657.281 525.542L661.197 524.121L664.955 534.843ZM625.143 490.177C625.243 488.252 625.651 486.532 626.343 485.017C626.36 484.98 626.381 484.941 626.398 484.904C628.062 481.777 630.519 479.429 633.759 477.865C634.29 477.61 634.906 477.579 635.442 477.777C635.98 477.98 636.392 478.397 636.576 478.92L640.337 489.654L636.42 491.075L633.455 482.612C632.056 483.646 630.935 484.95 630.087 486.526C629.599 487.614 629.335 488.849 629.263 490.228C629.263 490.264 629.259 490.301 629.254 490.339C629.098 491.798 629.354 493.406 629.969 495.162L626.052 496.582C625.237 494.257 624.949 492.119 625.143 490.177Z" fill="#FDA31F"/>
<path fill-rule="evenodd" clip-rule="evenodd" d="M631.697 503.291C629.037 501.907 627.141 499.683 626.054 496.581L629.97 495.16C630.716 497.288 631.975 498.841 633.801 499.786L633.867 499.82C635.327 500.648 637.332 500.992 639.88 500.943L636.421 491.074L640.338 489.653L644.674 502.027C644.875 502.601 644.783 503.247 644.424 503.774C644.069 504.296 643.483 504.647 642.844 504.714C637.907 505.228 634.202 504.691 631.697 503.291Z" fill="#FDA31F"/>
<path fill-rule="evenodd" clip-rule="evenodd" d="M658.089 515.25L661.198 524.121L657.281 525.542L653.384 514.42C653.193 513.877 653.265 513.271 653.576 512.76C653.893 512.248 654.416 511.884 655.012 511.766C660.777 510.626 665.01 510.97 667.742 512.493L667.804 512.534C670.524 514.191 672.433 516.553 673.513 519.635C674.117 521.359 674.457 523.036 674.546 524.656L670.42 525.041C670.352 523.752 670.076 522.423 669.597 521.056C668.82 518.841 667.466 517.135 665.522 515.938C663.809 514.997 661.329 514.816 658.089 515.25Z" fill="#FDA31F"/>
<path fill-rule="evenodd" clip-rule="evenodd" d="M645.629 517.343C626.092 520.112 614.524 514.894 610.61 502.393C608.159 494.891 608.641 488.155 611.921 482.187C614.924 476.725 620.333 471.873 628.239 467.719L625.979 461.272C625.621 460.249 626.205 459.1 627.285 458.709L630.494 457.545L631.794 461.253L630.546 461.706L632.726 467.927C633.056 468.87 632.59 469.932 631.636 470.399C623.798 474.256 618.402 478.723 615.547 483.917C612.77 488.975 612.478 494.686 614.562 501.071C618.066 512.269 628.931 516.054 646.81 513.177C647.784 513.02 648.711 513.541 649.019 514.421L658.002 540.053C658.185 540.576 658.123 541.157 657.842 541.656C657.557 542.157 657.072 542.525 656.504 542.678C651.449 544.02 646.933 544.488 642.97 544.108C639.537 543.924 636.312 543.321 633.288 542.297L627.881 551.002C632.357 552.121 637.092 552.716 642.074 552.798C647.868 552.84 653.597 551.869 659.269 549.892C660.349 549.518 661.498 550.03 661.854 551.045L665.548 561.588L666.88 561.105L668.179 564.81L664.886 566.005C663.806 566.396 662.64 565.886 662.282 564.864L658.566 554.26C653.045 555.977 647.474 556.81 641.84 556.769C635.522 556.667 629.605 555.785 624.068 554.136C623.488 553.963 623.025 553.536 622.819 552.982C622.607 552.429 622.677 551.8 623.001 551.276L630.705 538.875C631.248 537.995 632.38 537.616 633.33 537.999C636.432 539.245 639.801 539.957 643.426 540.147L643.522 540.152C646.46 540.44 649.737 540.18 653.355 539.39L645.629 517.343Z" fill="#FDA31F"/>
<path fill-rule="evenodd" clip-rule="evenodd" d="M666.149 591.601C660.845 592.713 655.346 593.298 649.72 593.298C645.055 593.298 641.276 589.448 641.276 584.707C641.276 579.966 645.055 576.117 649.72 576.117C685.18 576.117 713.97 546.827 713.97 510.751C713.97 474.674 685.18 445.384 649.72 445.384C645.055 445.384 641.276 441.535 641.276 436.793C641.276 432.052 645.055 428.203 649.72 428.203C694.501 428.203 730.858 465.191 730.858 510.751C730.858 544.518 710.882 573.577 682.309 586.356L735.244 713.393C737.065 717.758 735.059 722.805 730.768 724.652C726.478 726.505 721.517 724.464 719.696 720.099L666.149 591.601Z" fill="#DC5D3C"/>
<path fill-rule="evenodd" clip-rule="evenodd" d="M649.718 576.115C614.258 576.115 585.468 546.826 585.468 510.749C585.468 474.674 614.258 445.385 649.718 445.385C654.378 445.385 658.162 441.535 658.162 436.794C658.162 432.052 654.378 428.203 649.718 428.203C604.938 428.203 568.58 465.191 568.58 510.749C568.58 556.308 604.938 593.297 649.718 593.297C654.378 593.297 658.162 589.447 658.162 584.706C658.162 579.965 654.378 576.115 649.718 576.115Z" fill="#DC5D3C"/>
<path fill-rule="evenodd" clip-rule="evenodd" d="M763.416 619.591C763.416 619.591 758.872 602.227 760.376 580.09C762.498 548.953 782.083 521.86 810.666 510.52C839.245 499.183 871.691 505.636 893.968 527.09C899.114 532.067 903.806 537.914 907.753 544.792C927.154 578.619 933.445 615.908 917.105 652.752C917.105 652.752 927.634 723.106 912.466 773.819C904.814 799.291 883.102 817.761 857.109 820.918C856.233 821.036 855.352 821.138 854.46 821.245C830.721 824.129 807.436 813.063 794.369 792.697C768.926 753.04 729.792 692.045 729.792 692.045C729.792 692.045 707.647 694.004 699.092 694.761C696.031 695.041 693.292 692.845 692.844 689.752C692.596 687.899 693.166 685.859 695.767 684.13C695.767 684.13 693.018 684.109 690.865 683.577C687.466 682.745 686.104 679.787 685.956 676.619C685.819 673.639 686.685 670.197 690.669 668.178C685.65 669.139 680.784 665.88 679.676 660.811C679.629 660.607 679.586 660.414 679.549 660.232C679.143 658.39 679.402 656.462 680.272 654.798C681.096 653.214 682.515 651.48 684.943 650.433C684.943 650.433 682.579 649.686 680.024 648.881C676.335 647.716 673.818 644.247 673.818 640.317V640.312C673.818 636.827 675.887 633.68 679.059 632.349C685.946 629.444 697.198 624.708 697.198 624.708C697.198 624.708 682.705 605.905 688.732 600.38C689.804 599.398 692.195 598.829 699.224 604.917C701.879 607.215 712.186 610.152 725.227 608.332C725.227 608.332 742.29 608.225 763.416 619.591ZM779.101 417.258C801.272 417.258 819.274 435.572 819.274 458.13C819.274 480.688 801.272 499.003 779.101 499.003C756.924 499.003 738.923 480.688 738.923 458.13C738.923 435.572 756.924 417.258 779.101 417.258Z" fill="#A8CFCC"/>
<path fill-rule="evenodd" clip-rule="evenodd" d="M728.43 692.168L737.233 691.159C738.389 691.024 739.434 691.873 739.566 693.054C739.698 694.23 738.864 695.293 737.703 695.427L732.352 696.039L729.792 692.045L728.43 692.168ZM687.033 680.71L712.466 678.321C713.627 678.208 714.656 679.078 714.761 680.259C714.872 681.44 714.017 682.487 712.856 682.595L695.646 684.211C695.683 684.184 695.725 684.157 695.767 684.13C695.767 684.13 693.018 684.109 690.864 683.577C689.044 683.132 687.809 682.079 687.033 680.71ZM682.473 665.773C682.663 665.66 682.879 665.574 683.106 665.52L706.666 660.355C707.8 660.103 708.924 660.844 709.172 662.003C709.415 663.158 708.692 664.301 707.552 664.554L690.405 668.318C690.49 668.269 690.579 668.221 690.669 668.178C687.608 668.763 684.605 667.781 682.473 665.773ZM678.214 648.075L703.346 640.199C704.459 639.85 705.642 640.483 705.985 641.616C706.328 642.749 705.7 643.952 704.586 644.301L684.737 650.524C684.806 650.492 684.874 650.459 684.943 650.433C684.943 650.433 682.578 649.686 680.024 648.881C679.386 648.677 678.779 648.408 678.214 648.075ZM694.648 621.127L703.441 617.428C704.518 616.971 705.752 617.492 706.201 618.587C706.644 619.688 706.132 620.945 705.056 621.396L697.192 624.703C697.124 624.612 696.057 623.221 694.648 621.127Z" fill="#82B5B2"/>
<path fill-rule="evenodd" clip-rule="evenodd" d="M763.22 618.781C762.36 615.119 759.062 599.425 760.376 580.09C762.497 548.953 782.083 521.86 810.666 510.52C839.244 499.183 871.691 505.636 893.968 527.09C899.114 532.067 903.805 537.914 907.753 544.792C927.154 578.619 933.445 615.908 917.105 652.752C917.105 652.752 927.634 723.106 912.466 773.819C904.814 799.291 883.101 817.761 857.109 820.918C856.233 821.036 855.352 821.138 854.46 821.245C830.721 824.129 807.436 813.063 794.369 792.697L776.947 765.545L836.178 695.121C805.214 646.084 771.49 623.769 763.22 618.781Z" fill="url(#paint0_linear_14_2)"/>
<path fill-rule="evenodd" clip-rule="evenodd" d="M835.951 694.767C836.057 694.869 836.157 694.992 836.242 695.121L874.499 753.872C875.143 754.865 874.879 756.197 873.908 756.852C872.937 757.507 871.628 757.233 870.984 756.245L833.36 698.472L836.178 695.121L835.951 694.767ZM917.475 655.469L917.57 656.232L917.453 656.478C917.453 656.478 909.004 608.622 896.881 572.036C896.591 571.279 896.929 570.425 897.647 570.081C898.364 569.732 899.225 570.012 899.62 570.715C906.075 583.467 914.925 602.555 924.737 628.241C924.594 629.004 924.446 629.766 924.288 630.523L924.283 630.55L924.209 630.905L924.204 630.937L924.124 631.297L924.119 631.318C923.961 632.075 923.787 632.832 923.607 633.584L923.602 633.611L923.517 633.954L923.507 634.008L923.428 634.341L923.407 634.405L923.327 634.733L923.312 634.792L923.227 635.13L923.222 635.152C923.095 635.646 922.963 636.14 922.831 636.639L922.821 636.671L922.736 636.988L922.71 637.079L922.631 637.369L922.599 637.482L922.52 637.767L922.488 637.885L922.409 638.164L922.377 638.282L922.293 638.567L922.267 638.663L922.177 638.964C922.14 639.093 922.103 639.222 922.061 639.35L921.961 639.683L921.945 639.737L921.865 640.006L921.823 640.145L921.744 640.392L921.697 640.553L921.623 640.789L921.57 640.961L921.496 641.192L921.438 641.369L921.364 641.6L921.306 641.777L921.232 642.003L921.174 642.185L921.1 642.411L921.026 642.626L920.974 642.798L920.905 642.991L920.836 643.2L920.768 643.404L920.694 643.614L920.625 643.812L920.551 644.022L920.483 644.22L920.409 644.435L920.34 644.628L920.261 644.849L920.192 645.037L920.113 645.267L920.05 645.445L919.95 645.713L919.897 645.853L919.749 646.255L919.696 646.39L919.596 646.663L919.533 646.83L919.443 647.072L919.374 647.249L919.285 647.485L919.216 647.662L919.126 647.898L919.058 648.076L918.963 648.317L918.894 648.484L918.789 648.747L918.731 648.892L918.593 649.23L918.567 649.3L918.398 649.708L918.351 649.831L918.229 650.116L918.166 650.277L918.06 650.529L917.992 650.696L917.886 650.937L917.818 651.109L917.712 651.356L917.638 651.523L917.533 651.775L917.464 651.931L917.343 652.21L917.285 652.339L917.105 652.752L917.137 652.967L917.142 653.037L917.174 653.235L917.184 653.332L917.227 653.617L917.242 653.724L917.29 654.105L917.306 654.218L917.374 654.701L917.385 654.798L917.464 655.41L917.475 655.469ZM783.217 633.401C783.217 633.401 781.207 617.589 778.499 571.118C778.436 570.081 779.138 569.759 779.523 569.673C780.209 569.518 780.732 569.969 780.795 570.366L792.115 641.294C788.986 638.368 786.009 635.742 783.217 633.401Z" fill="#28625E"/>
<path fill-rule="evenodd" clip-rule="evenodd" d="M747.805 432.512C755.172 423.212 766.456 417.258 779.101 417.258C801.272 417.258 819.274 435.572 819.274 458.13C819.274 470.894 813.511 482.299 804.492 489.795L790.469 475.625C791.962 475.517 793.504 475.114 794.997 474.391C800.28 471.832 801.636 465.104 799.604 460.761C797.567 456.418 791.63 454.969 786.352 457.528C782.927 459.189 781.888 463.255 781.244 466.302L747.805 432.512Z" fill="black"/>
<path d="M393.935 545.423C433.37 545.423 465.339 512.899 465.339 472.779C465.339 432.659 433.37 400.136 393.935 400.136C354.5 400.136 322.532 432.659 322.532 472.779C322.532 512.899 354.5 545.423 393.935 545.423Z" fill="#A8CFCC"/>
<path fill-rule="evenodd" clip-rule="evenodd" d="M324.343 456.464C324.86 456.229 325.491 456.092 326.253 456.229C327.756 456.499 328.824 457.808 328.868 459.302C329.368 460.204 330.717 462.562 332.326 464.784C336.124 470.034 342.531 477.574 351.403 485.27C355.467 467.581 363.246 452.832 371.849 441.006C359.145 431.034 352.158 421.849 350.738 420.095C349.625 418.723 349.82 416.691 351.166 415.56C352.517 414.429 354.512 414.624 355.625 415.996C356.982 417.669 363.637 426.413 375.743 435.905C392.241 415.321 410.111 405.074 410.111 405.074C411.631 404.201 413.563 404.749 414.423 406.298C415.283 407.847 414.745 409.813 413.22 410.686C413.22 410.686 396.411 420.329 380.826 439.692C392.896 448.229 409.309 456.702 430.177 460.636C432.42 445.147 431.602 430.758 430.024 420.092C429.765 418.334 430.958 416.692 432.684 416.427C434.415 416.162 436.03 417.374 436.288 419.133C437.945 430.334 438.774 445.41 436.42 461.655C444.542 462.778 453.293 463.206 462.671 462.704C463.447 462.663 464.165 462.907 464.74 463.346C464.94 464.909 465.088 466.486 465.194 468.077C464.65 468.69 463.88 469.092 463.003 469.138C453.124 469.667 443.904 469.211 435.338 468.017C432.272 483.732 426.044 500.183 414.613 515.036C426.108 516.732 438.679 516.834 452.285 514.633C450.511 517.189 448.574 519.626 446.5 521.924C433.29 523.396 421.062 522.81 409.847 520.786C402.179 529.388 392.558 537.307 380.546 544.046C380.504 544.073 380.456 544.094 380.409 544.116C379.111 543.863 377.828 543.573 376.556 543.251C376.44 543.106 376.334 542.95 376.245 542.779C375.4 541.222 375.96 539.262 377.49 538.403C387.513 532.776 395.772 526.279 402.548 519.234C383.75 514.638 368.08 506.083 355.747 496.911C354.364 507.344 354.369 518.73 356.311 531.068C356.48 532.153 356.095 533.2 355.367 533.909C353.414 532.631 351.53 531.262 349.714 529.801C347.814 516.222 348.131 503.754 349.999 492.407C335.03 480.048 326.036 467.559 323.509 462.853C323.42 462.687 323.337 462.527 323.261 462.373C323.543 460.375 323.905 458.403 324.343 456.464ZM376.92 444.799C368.291 456.68 360.533 471.678 356.918 489.807C369.722 499.794 386.668 509.339 407.451 513.747C419.526 499.152 425.981 482.703 429.09 466.997C406.987 462.852 389.634 453.845 376.92 444.799ZM326.226 462.579C326.078 462.605 325.928 462.619 325.776 462.623C325.624 462.626 325.47 462.619 325.315 462.599C325.645 462.642 325.948 462.631 326.226 462.579Z" fill="#82B5B2"/>
<path fill-rule="evenodd" clip-rule="evenodd" d="M150.2 609.991C150.2 609.991 45.2646 525.522 118.155 425.473C125.913 414.826 172.989 352.761 239.886 310.694C242.498 309.046 245.86 309.32 248.183 311.369C249.663 312.708 250.625 314.752 249.671 317.892C249.671 317.892 260.024 315.596 259.31 325.715C259.31 325.715 271.434 322.407 271.855 335.113C271.855 335.113 291.897 310.126 300.629 299.24C302.918 296.387 306.919 295.677 310.021 297.573L310.022 297.574C311.43 298.435 312.444 299.829 312.841 301.451C313.237 303.072 312.983 304.788 312.135 306.218C274.877 368.996 235.272 426.592 195.548 483.926C195.548 483.926 228.316 517.65 245.202 529.79C252.058 534.714 320.576 578.27 330.484 602.12C330.484 602.12 331.32 596.654 332.272 590.431C333.92 579.639 341.74 570.898 352.137 568.202C359.188 566.377 365.732 564.68 365.732 564.68C365.732 564.68 377.427 562.65 387.386 562.731C393.909 562.779 399.672 567.048 401.73 573.341C402.675 576.245 402.279 579.429 400.643 581.996C399.72 583.451 398.902 584.729 398.902 584.729C398.902 584.729 401.25 585.54 403.43 586.291C405.752 587.091 407.626 588.858 408.591 591.15C410.47 595.618 409.663 600.788 406.512 604.445C405.53 605.588 404.802 606.431 404.802 606.431H405.514C409.23 606.431 412.571 608.729 413.959 612.241C415.864 617.063 414.323 622.582 410.217 625.67C409.198 626.432 408.491 626.969 408.491 626.969C409.779 626.523 410.982 627.425 411.827 629.492C413.5 633.578 411.964 638.298 408.322 640.72C402.643 644.494 395.149 649.477 395.149 649.477C393.466 684.715 389.281 722.725 369.621 768.025C363.689 781.647 352.021 791.8 337.877 795.65C337.866 795.661 337.855 795.661 337.845 795.666C308.238 803.72 277.209 789.057 264.165 760.846C257.902 747.289 251.214 730.58 245.202 710.901C245.202 710.901 220.312 714.209 195.548 701.452C165.797 686.128 136.227 651.388 150.2 609.991Z" fill="url(#paint1_linear_14_2)"/>
<path fill-rule="evenodd" clip-rule="evenodd" d="M105.452 552.449C108.578 542.687 119.486 520.765 154.128 522.826C154.128 522.826 166.415 486.378 205.264 493.711C216.284 504.643 234.147 521.844 245.202 529.79C252.058 534.714 320.576 578.27 330.484 602.12L330.599 601.374C336.993 620.467 348.606 661.445 342.769 705.79C342.769 705.79 319.766 721.441 297.393 701.779C297.393 701.779 276.213 730.365 245.582 712.136C245.455 711.723 245.328 711.315 245.202 710.901C245.202 710.901 220.313 714.209 195.548 701.452C165.797 686.128 136.227 651.388 150.2 609.991C150.2 609.991 122.498 587.693 105.452 552.449ZM251.085 520.287L260.099 525.994C256.848 524.486 253.821 522.563 251.085 520.287Z" fill="#FD9500"/>
<path fill-rule="evenodd" clip-rule="evenodd" d="M339.618 695.476L334.504 754.237C334.401 755.418 335.26 756.465 336.421 756.567C337.581 756.675 338.605 755.799 338.71 754.618L343.819 695.857C343.925 694.676 343.064 693.629 341.903 693.527C340.742 693.419 339.718 694.294 339.618 695.476Z" fill="#FD9500"/>
<path fill-rule="evenodd" clip-rule="evenodd" d="M230.013 710.987C228.214 689.489 233.019 672.006 236.231 663.093C236.489 662.471 237.14 662.127 237.788 662.261C238.436 662.395 238.901 662.975 238.9 663.646C239.522 681.123 244.045 704.668 245.502 711.879C245.402 711.551 245.301 711.229 245.202 710.901C245.202 710.901 239.135 711.707 230.013 710.987ZM135.572 595.913C143.212 586.27 150.764 578.973 157.795 573.448C168.622 564.938 178.212 560.632 184.973 558.43C185.756 558.253 186.552 558.672 186.865 559.418C187.179 560.17 186.92 561.04 186.251 561.491C165.795 575.73 154.128 600.391 150.18 609.975C149.793 609.658 143.685 604.67 135.572 595.913Z" fill="#E15D33"/>
<path fill-rule="evenodd" clip-rule="evenodd" d="M408.533 626.953C409.811 626.545 410.993 627.452 411.827 629.492C411.874 629.605 411.916 629.718 411.959 629.831C408.058 632.311 399.577 637.208 391.83 638.298C390.674 638.459 389.608 637.638 389.45 636.467C389.286 635.291 390.093 634.207 391.249 634.046C397.667 633.144 404.612 629.369 408.533 626.953ZM404.807 606.431H405.515C407.235 606.431 408.877 606.925 410.28 607.806C407.953 609.535 398.68 616.107 388.964 618.459C387.829 618.732 386.695 618.018 386.42 616.864C386.151 615.715 386.853 614.555 387.988 614.281C394.622 612.671 401.029 608.934 404.807 606.431ZM398.928 584.74L403.129 586.189C399.261 591.274 392.004 598.834 381.897 600.896C380.757 601.132 379.644 600.375 379.412 599.215C379.185 598.05 379.923 596.917 381.069 596.686C389.286 595.006 395.355 589.185 398.928 584.74Z" fill="#FD9500"/>
<path fill-rule="evenodd" clip-rule="evenodd" d="M370.682 570.581C370.682 570.581 363.478 572.197 355.884 571.096C354.728 570.93 353.662 571.751 353.493 572.922C353.33 574.098 354.137 575.182 355.288 575.349C363.653 576.562 371.59 574.779 371.59 574.779C372.725 574.522 373.448 573.373 373.195 572.218C372.947 571.059 371.817 570.328 370.682 570.581Z" fill="#FD9500"/>
<path fill-rule="evenodd" clip-rule="evenodd" d="M270.688 329.815C271.35 331.16 271.781 332.892 271.855 335.113L275.041 331.141C274.979 331.255 274.905 331.365 274.821 331.47L266.922 341.201C266.18 342.115 264.848 342.244 263.95 341.489C263.052 340.734 262.924 339.38 263.666 338.466L270.688 329.815ZM258.242 320.422C259.027 321.62 259.478 323.316 259.311 325.706L254.414 331.411C253.647 332.304 252.313 332.395 251.435 331.616C250.557 330.836 250.467 329.478 251.233 328.585L258.242 320.422ZM249.158 312.488C250.02 313.777 250.391 315.523 249.671 317.892H249.671C247.028 320.427 243.98 323.368 243.98 323.368C243.134 324.184 241.797 324.148 240.995 323.287C240.194 322.427 240.229 321.067 241.075 320.251C241.075 320.251 246.472 315.044 249.158 312.488Z" fill="#FD9500"/>
<path fill-rule="evenodd" clip-rule="evenodd" d="M195.548 483.926C195.548 483.926 181.616 469.93 173.364 461.641C172.798 461.071 172.712 460.181 173.159 459.514C173.605 458.847 174.461 458.587 175.203 458.894C186.093 463.403 204.568 471.052 204.568 471.052L195.548 483.926Z" fill="#FD9500"/>
<path fill-rule="evenodd" clip-rule="evenodd" d="M363.887 575.618L367.089 551.715C361.97 549.911 356.956 547.559 352.117 544.627C348.111 542.205 346.792 536.928 349.172 532.852C351.557 528.777 356.744 527.441 360.745 529.862C391.222 548.307 430.68 538.102 448.806 507.098C466.927 476.093 456.899 435.949 426.421 417.507C422.416 415.083 421.096 409.807 423.481 405.732C425.861 401.657 431.049 400.316 435.054 402.74C473.543 426.029 486.205 476.726 463.319 515.88C446.354 544.905 414.59 559.492 383.612 555.614L381.528 571.163C377.708 573.004 371.375 575.388 363.887 575.618Z" fill="#DC5D3C"/>
<path fill-rule="evenodd" clip-rule="evenodd" d="M360.747 529.865C330.267 511.423 320.237 471.277 338.362 440.271C356.486 409.266 395.947 399.065 426.426 417.507C430.432 419.93 435.618 418.59 438 414.515C440.382 410.439 439.064 405.163 435.058 402.74C396.568 379.451 346.734 392.332 323.846 431.488C300.957 470.644 313.624 521.343 352.115 544.632C356.12 547.056 361.307 545.715 363.689 541.64C366.071 537.565 364.752 532.289 360.747 529.865Z" fill="#DC5D3C"/>
<path d="M277.304 529.788C300.231 529.788 318.817 510.879 318.817 487.553C318.817 464.228 300.231 445.319 277.304 445.319C254.377 445.319 235.791 464.228 235.791 487.553C235.791 510.879 254.377 529.788 277.304 529.788Z" fill="#FFBB22"/>
<path fill-rule="evenodd" clip-rule="evenodd" d="M262.869 504.236C255.38 505.55 247.411 505.736 239.146 504.203C236.987 499.094 235.791 493.465 235.791 487.553C235.791 464.244 254.392 445.319 277.304 445.319C295.567 445.319 311.092 457.343 316.638 474.025C314.899 481.967 301.836 497.829 275.003 501.062C275.871 498.803 275.942 496.058 275.007 493.389C273.174 488.151 268.16 485.175 263.818 486.748C259.476 488.32 257.44 493.851 259.273 499.089C260.025 501.238 261.313 503.006 262.869 504.236Z" fill="black"/>
<path d="M291.616 442.355C307.252 442.355 319.928 429.459 319.928 413.551C319.928 397.644 307.252 384.748 291.616 384.748C275.98 384.748 263.305 397.644 263.305 413.551C263.305 429.459 275.98 442.355 291.616 442.355Z" fill="black"/>
<path fill-rule="evenodd" clip-rule="evenodd" d="M591.914 322.111C576.635 351.563 546.22 371.649 511.23 371.649C460.892 371.649 420.017 330.067 420.017 278.849C420.017 247.682 435.153 220.083 458.364 203.273L511.23 278.849L591.914 322.111Z" fill="#E5734E"/>
<path fill-rule="evenodd" clip-rule="evenodd" d="M511.23 278.849L458.364 203.273C471.601 193.646 487.481 187.55 504.675 186.316L511.23 278.849Z" fill="#FFBB22"/>
<path fill-rule="evenodd" clip-rule="evenodd" d="M507.05 186.158L511.23 186.05C536.874 186.05 560.064 196.84 576.63 214.215L511.23 278.849L504.675 186.316L505.91 186.219L507.05 186.158Z" fill="#A8CFCC"/>
<path fill-rule="evenodd" clip-rule="evenodd" d="M601.282 208.779C617.263 225.477 627.1 248.285 627.1 273.413C627.1 289.034 623.295 303.759 616.566 316.674L535.882 273.413L601.282 208.779Z" fill="#FFCBC4"/>
</g>
<defs>
<linearGradient id="paint0_linear_14_2" x1="760.07" y1="663.357" x2="988.233" y2="842.582" gradientUnits="userSpaceOnUse">
<stop stop-color="#82B5B2"/>
<stop offset="0.57" stop-color="#9AC1BB"/>
<stop offset="0.8" stop-color="#CED9CF"/>
<stop offset="1" stop-color="#FFF1E2"/>
</linearGradient>
<linearGradient id="paint1_linear_14_2" x1="259.885" y1="692.163" x2="54.8404" y2="744.501" gradientUnits="userSpaceOnUse">
<stop stop-color="#FFBB22"/>
<stop offset="0.47" stop-color="#FEB019"/>
<stop offset="1" stop-color="#FD9500"/>
</linearGradient>
<clipPath id="clip0_14_2">
<rect width="1000" height="1000" fill="white"/>
</clipPath>
</defs>
</svg>
