<svg width="1080" height="1080" viewBox="0 0 1080 1080" fill="none" xmlns="http://www.w3.org/2000/svg">
<path d="M530.158 883C467.007 883 410.417 868.242 360.388 838.727C310.36 808.392 270.583 767.399 241.058 715.747C212.353 664.095 198 605.885 198 541.115C198 475.525 212.763 416.905 242.288 365.253C272.633 313.601 313.64 273.018 365.309 243.503C416.978 213.168 475.209 198 540 198C604.791 198 662.611 213.168 713.46 243.503C765.129 273.018 805.727 313.601 835.252 365.253C865.597 416.905 881.18 475.525 882 541.115L843.863 570.63C843.863 629.661 829.921 682.952 802.036 730.505C774.971 777.237 737.655 814.541 690.086 842.417C643.338 869.472 590.029 883 530.158 883ZM540 796.914C587.568 796.914 629.806 785.846 666.712 763.709C704.439 741.573 733.964 711.238 755.288 672.704C777.432 633.35 788.504 589.487 788.504 541.115C788.504 491.923 777.432 448.06 755.288 409.526C733.964 370.992 704.439 340.657 666.712 318.521C629.806 295.564 587.568 284.086 540 284.086C493.252 284.086 451.014 295.564 413.288 318.521C375.561 340.657 345.626 370.992 323.482 409.526C301.338 448.06 290.266 491.923 290.266 541.115C290.266 589.487 301.338 633.35 323.482 672.704C345.626 711.238 375.561 741.573 413.288 763.709C451.014 785.846 493.252 796.914 540 796.914ZM834.022 876.851C820.079 876.851 808.597 872.752 799.575 864.553C790.554 855.534 786.043 844.056 786.043 830.119V619.822L809.417 522.668L882 541.115V830.119C882 844.056 877.489 855.534 868.468 864.553C859.446 872.752 847.964 876.851 834.022 876.851Z" fill="#3F50B5"/>
</svg>
