<svg width="1544" height="415" viewBox="0 0 1544 415" fill="none" xmlns="http://www.w3.org/2000/svg">
<path d="M160.401 338C143.563 338 128.497 334.015 115.204 326.046C101.91 317.855 91.3863 306.786 83.6318 292.84C75.8773 278.893 72 263.176 72 245.687C72 227.977 75.988 212.149 83.9641 198.202C92.1617 184.256 103.24 173.298 117.198 165.328C131.156 157.137 146.886 153.042 164.389 153.042C181.671 153.042 197.18 157.137 210.917 165.328C224.875 173.298 235.842 184.256 243.818 198.202C252.015 212.149 256.225 227.977 256.447 245.687L245.147 251.332C245.147 267.714 241.381 282.435 233.848 295.496C226.536 308.557 216.456 318.962 203.605 326.71C190.976 334.237 176.575 338 160.401 338ZM164.389 312.763C176.797 312.763 187.764 309.885 197.291 304.13C207.039 298.153 214.683 290.073 220.222 279.889C225.982 269.706 228.863 258.305 228.863 245.687C228.863 232.847 225.982 221.447 220.222 211.485C214.683 201.302 207.039 193.221 197.291 187.244C187.764 181.267 176.797 178.279 164.389 178.279C152.204 178.279 141.126 181.267 131.156 187.244C121.407 193.221 113.653 201.302 107.892 211.485C102.132 221.447 99.2516 232.847 99.2516 245.687C99.2516 258.305 102.132 269.706 107.892 279.889C113.653 290.073 121.407 298.153 131.156 304.13C141.126 309.885 152.204 312.763 164.389 312.763ZM242.156 336.34C238.168 336.34 234.734 335.122 231.854 332.687C229.195 330.031 227.866 326.599 227.866 322.393V267.603L234.18 238.714L256.447 245.687V322.393C256.447 326.599 255.117 330.031 252.459 332.687C249.8 335.122 246.366 336.34 242.156 336.34Z" fill="#3F50B5"/>
<path d="M433.509 336.34C430.85 336.34 428.635 336.008 426.862 335.344C425.09 334.458 423.318 332.908 421.545 330.695L364.051 258.637L353.416 249.008L295.59 176.95C292.931 173.851 291.602 170.641 291.602 167.321C291.602 164 292.709 161.122 294.925 158.687C297.141 156.031 300.242 154.702 304.23 154.702C308.44 154.702 311.985 156.252 314.865 159.351L371.03 229.416L379.671 237.053L441.818 314.756C444.919 318.298 446.249 321.84 445.806 325.382C445.584 328.702 444.144 331.359 441.485 333.351C439.048 335.344 436.389 336.34 433.509 336.34ZM303.233 336.34C299.467 336.34 296.365 335.122 293.928 332.687C291.712 330.252 290.605 327.374 290.605 324.053C290.605 320.733 291.934 317.412 294.593 314.092L354.081 239.71L369.701 260.63L313.203 332.023C310.766 334.901 307.443 336.34 303.233 336.34ZM382.329 250.336L364.051 232.737L420.216 160.679C421.767 158.466 423.539 156.916 425.533 156.031C427.527 155.145 429.521 154.702 431.515 154.702C435.725 154.702 438.827 156.031 440.821 158.687C443.036 161.122 444.033 164.111 443.812 167.653C443.812 171.195 442.593 174.515 440.156 177.615L382.329 250.336Z" fill="#3F50B5"/>
<path d="M555.469 338C537.523 338 521.57 334.015 507.612 326.046C493.876 318.076 483.019 307.118 475.043 293.172C467.067 279.225 463.079 263.397 463.079 245.687C463.079 227.756 467.067 211.817 475.043 197.87C483.019 183.924 493.876 172.966 507.612 164.996C521.57 157.027 537.523 153.042 555.469 153.042C573.193 153.042 588.924 157.027 602.661 164.996C616.397 172.966 627.253 183.924 635.229 197.87C643.206 211.817 647.304 227.756 647.526 245.687C647.526 263.397 643.538 279.225 635.562 293.172C627.586 307.118 616.619 318.076 602.661 326.046C588.924 334.015 573.193 338 555.469 338ZM555.469 312.763C567.876 312.763 578.954 309.885 588.702 304.13C598.451 298.153 606.095 290.183 611.634 280.221C617.173 270.038 619.942 258.527 619.942 245.687C619.942 232.847 617.173 221.336 611.634 211.153C606.095 200.969 598.451 193 588.702 187.244C578.954 181.267 567.876 178.279 555.469 178.279C543.062 178.279 531.873 181.267 521.903 187.244C512.154 193 504.4 200.969 498.639 211.153C493.1 221.336 490.331 232.847 490.331 245.687C490.331 258.527 493.1 270.038 498.639 280.221C504.4 290.183 512.154 298.153 521.903 304.13C531.873 309.885 543.062 312.763 555.469 312.763Z" fill="#3F50B5"/>
<path d="M737.849 336.34C728.543 336.34 720.346 333.905 713.256 329.034C706.166 323.943 700.627 316.969 696.639 308.115C692.651 299.26 690.657 289.076 690.657 277.565V90.9466C690.657 86.7405 691.875 83.4198 694.313 80.9847C696.971 78.3282 700.405 77 704.615 77C708.603 77 711.816 78.3282 714.253 80.9847C716.911 83.4198 718.241 86.7405 718.241 90.9466V277.565C718.241 286.641 720.013 294.168 723.558 300.145C727.325 305.901 732.088 308.779 737.849 308.779H746.157C749.702 308.779 752.582 310.107 754.798 312.763C757.013 315.198 758.121 318.408 758.121 322.393C758.121 326.599 756.46 330.031 753.136 332.687C750.034 335.122 745.936 336.34 740.84 336.34H737.849Z" fill="#3F50B5"/>
<path d="M973.161 338C955.658 338 939.927 334.015 925.969 326.046C912.011 317.855 900.933 306.786 892.736 292.84C884.759 278.893 880.771 263.065 880.771 245.355C880.771 227.866 884.649 212.149 892.403 198.202C900.158 184.256 910.682 173.298 923.975 165.328C937.269 157.137 952.335 153.042 969.173 153.042C983.574 153.042 996.535 156.141 1008.06 162.34C1019.8 168.317 1029.33 176.286 1036.64 186.248V91.2786C1036.64 86.8511 1037.97 83.4198 1040.63 80.9847C1043.51 78.3282 1046.94 77 1050.93 77C1055.14 77 1058.57 78.3282 1061.23 80.9847C1063.89 83.4198 1065.22 86.8511 1065.22 91.2786V246.351C1064.77 263.618 1060.45 279.225 1052.26 293.172C1044.28 306.897 1033.42 317.855 1019.69 326.046C1005.95 334.015 990.442 338 973.161 338ZM973.161 312.763C985.568 312.763 996.535 309.775 1006.06 303.798C1015.81 297.821 1023.45 289.851 1028.99 279.889C1034.75 269.706 1037.63 258.195 1037.63 245.355C1037.63 232.737 1034.75 221.336 1028.99 211.153C1023.45 200.969 1015.81 193 1006.06 187.244C996.535 181.267 985.568 178.279 973.161 178.279C960.975 178.279 949.897 181.267 939.927 187.244C930.179 193 922.424 200.969 916.664 211.153C910.903 221.336 908.023 232.737 908.023 245.355C908.023 258.195 910.903 269.706 916.664 279.889C922.424 289.851 930.179 297.821 939.927 303.798C949.897 309.775 960.975 312.763 973.161 312.763Z" fill="#3F50B5"/>
<path d="M1208.47 338C1190.31 338 1174.24 334.126 1160.28 326.378C1146.33 318.408 1135.36 307.45 1127.38 293.504C1119.41 279.557 1115.42 263.618 1115.42 245.687C1115.42 227.534 1119.19 211.595 1126.72 197.87C1134.25 183.924 1144.55 172.966 1157.63 164.996C1170.92 157.027 1186.21 153.042 1203.49 153.042C1220.33 153.042 1234.95 156.916 1247.36 164.664C1259.99 172.191 1269.62 182.706 1276.27 196.21C1283.14 209.714 1286.57 225.099 1286.57 242.366C1286.57 246.13 1285.35 249.229 1282.92 251.664C1280.48 253.878 1277.38 254.985 1273.61 254.985H1134.69V232.073H1275.27L1260.98 242.034C1261.2 229.859 1258.99 218.901 1254.34 209.16C1249.68 199.42 1243.04 191.782 1234.4 186.248C1225.75 180.714 1215.45 177.947 1203.49 177.947C1190.86 177.947 1179.78 180.824 1170.25 186.58C1160.95 192.336 1153.75 200.416 1148.65 210.821C1143.78 221.004 1141.34 232.626 1141.34 245.687C1141.34 258.748 1144.22 270.37 1149.98 280.553C1155.74 290.737 1163.61 298.706 1173.58 304.462C1183.77 310.218 1195.4 313.095 1208.47 313.095C1216.01 313.095 1223.65 311.767 1231.4 309.111C1239.38 306.454 1245.69 303.134 1250.35 299.149C1253.01 297.156 1256 296.16 1259.32 296.16C1262.87 295.939 1265.75 296.824 1267.96 298.817C1271.28 301.695 1272.95 304.794 1272.95 308.115C1273.17 311.435 1271.73 314.313 1268.63 316.748C1261.31 322.947 1252.01 328.038 1240.71 332.023C1229.41 336.008 1218.66 338 1208.47 338Z" fill="#3F50B5"/>
<path d="M1385.17 336.34C1379.41 336.34 1375.09 333.24 1372.21 327.042L1299.43 172.966C1297.88 169.866 1297.65 166.767 1298.76 163.668C1300.09 160.569 1302.53 158.134 1306.07 156.363C1309.4 154.592 1312.61 154.37 1315.71 155.698C1319.03 156.805 1321.58 158.908 1323.35 162.008L1392.48 311.767H1378.19L1446.65 162.008C1447.98 158.687 1450.42 156.473 1453.96 155.366C1457.51 154.26 1460.94 154.481 1464.27 156.031C1467.81 157.802 1470.14 160.347 1471.24 163.668C1472.35 166.767 1472.24 169.756 1470.91 172.634L1398.8 327.042C1395.92 333.24 1391.37 336.34 1385.17 336.34Z" fill="#3F50B5"/>
</svg>
